# xmcd
#
# Track frame offsets:
#	150
#	17310
#	36890
#	49415
#	60832
#	74477
#	86937
#	98412
#	115545
#	130890
#	146735
#	160035
#	173247
#	187975
#	206620
#	219897
#	232892
#
# Disc length: 3266
#
# Revision: 1
# Processed by: cddbd v1.5.1PL0 Copyright (c) Steve Scherf et al.
# Submitted via: EasyCDDAExtractor 5.0.5.1
# Normalized: r0:DSETVAR1
#
DISCID=dc0cc011
DTITLE=Various Artist - Country Dynasty
DYEAR=1993
DGENRE=Country
TTITLE0=Dr Hook - Sylvia's Mother
TTITLE1=Kris Kristofferson - Me And Bobby McGee
TTITLE2=Roy Orbison - Crying
TTITLE3=Patsy Cline - Walkin' After Midnight
TTITLE4=George Jones, Tammy Wynette - Golden Ring
TTITLE5=Johnny Cash, June Carter - Jackson
TTITLE6=Johnny Cash - A Thing Called Love
TTITLE7=Kris Kristofferson, Brenda Lee - Helf Me Make It Through The Night
TTITLE8=Dolly Parton - What Will Baby Be
TTITLE9=Willie Nelson - Always On My Mind
TTITLE10=Merle Haggard - To All The Girls I've Loved Before
TTITLE11=Charlie Rich - Behind Closed Doors
TTITLE12=Rosanne Cash - Seven Year Ache
TTITLE13=Mary Chapin Carpenter - Downtown Train
TTITLE14=Willie Nelson, Brenda Lee - You're Gonna Love Yourself (In The Morning)
TTITLE15=Lynn Anderson - Honey Come Back
TTITLE16=Tammy Wynette - There Goes My Everything
EXTD=
EXTT0=
EXTT1=
EXTT2=
EXTT3=
EXTT4=
EXTT5=
EXTT6=
EXTT7=
EXTT8=
EXTT9=
EXTT10=
EXTT11=
EXTT12=
EXTT13=
EXTT14=
EXTT15=
EXTT16=
PLAYORDER=
